<svg width="122" height="40" viewBox="0 0 122 40" fill="none" xmlns="http://www.w3.org/2000/svg">
<path d="M2.92137 21.2796C2.68477 21.769 2.40529 22.365 2.15982 22.9446C1.62157 24.2208 1.33322 26.5778 1.32139 26.6784L1.1957 27.7268L1.89809 26.9387C2.29678 26.5131 2.75087 26.1431 3.24817 25.8385C2.37424 27.6292 1.99717 30.3013 1.97794 30.4432L1.83007 31.4887L2.54429 30.7138C3.28366 29.9168 4.51839 29.6018 5.22818 29.4821C5.13282 29.8481 5.0954 30.2268 5.11727 30.6044L5.17938 31.3704L5.69397 30.7981C5.71468 30.7774 5.73686 30.7552 5.76199 30.7331C5.69688 31.1094 5.66866 31.4913 5.67771 31.8731L5.69397 32.441L6.18047 32.1452C8.55382 30.7109 12.7475 34.0602 12.7904 34.0927L13.4262 34.6073L13.4188 34.5496C13.5046 34.7276 13.6168 34.8916 13.7515 35.0361C13.7515 35.0361 13.9793 34.1119 14.1745 33.9537C14.1975 34.611 14.3995 35.2496 14.7585 35.8006C15.35 36.645 15.9267 37.9374 16.0746 38.6235C16.2225 37.9374 16.8036 36.645 17.3892 35.8006C17.7483 35.2496 17.9502 34.611 17.9733 33.9537C18.1685 34.1119 18.3962 35.0361 18.3962 35.0361C18.5318 34.8917 18.644 34.7271 18.7289 34.5482V34.6073L19.3648 34.0927C19.4062 34.0602 23.6013 30.7109 25.9732 32.1452L26.4597 32.441L26.4774 31.8731C26.4849 31.4913 26.4566 31.1096 26.3931 30.7331C26.4183 30.7552 26.4405 30.7774 26.4597 30.7981L26.9743 31.3704L27.0364 30.6044C27.0603 30.2281 27.0249 29.8503 26.9314 29.485C27.6397 29.6048 28.8759 29.9198 29.6138 30.7168L30.3295 31.4916L30.1816 30.4462C30.1624 30.2983 29.7853 27.6366 28.9114 25.8414C29.408 26.1463 29.8616 26.5164 30.26 26.9416L30.9624 27.7298L30.8352 26.6754C30.8234 26.5749 30.5395 24.2178 29.9968 22.9417C29.7513 22.362 29.4733 21.7661 29.2367 21.2766C29.7022 21.5705 30.1468 21.8961 30.5676 22.2511L31.6411 23.3261L31.1117 21.9007C30.9964 21.5916 30.0766 19.1576 29.0016 18.0161C29.4304 17.8223 29.9524 17.4778 30.0278 16.9321L30.0604 16.6542L29.7942 16.5699C29.7809 16.5699 28.422 16.1055 26.9462 13.0904C27.375 12.0391 29.6966 5.63324 24.5669 1.59042L24.2919 1.37305L24.0908 1.65844C24.0656 1.69393 21.6997 5.0314 19.7759 6.51456C19.7099 6.26995 19.7249 6.01055 19.8187 5.7752L20.2978 4.60553L19.3056 5.38925C18.7809 5.81182 18.2936 6.27886 17.8491 6.78517C17.787 6.57362 17.76 6.35333 17.7692 6.13305L17.8136 5.5874L17.3093 5.80034C16.8267 6.02139 16.4065 6.35877 16.0864 6.78221C15.7656 6.35888 15.345 6.02155 14.8621 5.80034L14.3578 5.5874L14.4037 6.13305C14.4123 6.3534 14.3849 6.57369 14.3223 6.78517C13.8778 6.27886 13.3905 5.81182 12.8658 5.38925L11.8736 4.60405L12.3527 5.7752C12.4468 6.01041 12.4624 6.26978 12.397 6.51456C10.4747 5.03584 8.10873 1.69393 8.08211 1.65844L7.87953 1.37305L7.60449 1.59042C2.47627 5.63324 4.79491 12.0391 5.22522 13.0904C3.7465 16.1055 2.39198 16.5654 2.38163 16.5684L2.10511 16.6482L2.14504 16.9321C2.22045 17.4778 2.73653 17.8194 3.16979 18.0161C2.0992 19.1576 1.17499 21.5916 1.05965 21.9007L0.530273 23.3261L1.6053 22.2511C2.02081 21.897 2.46058 21.5724 2.92137 21.2796ZM16.082 29.2809C15.767 29.2913 14.5885 29.281 14.1833 28.5342H17.9807C17.5726 29.2765 16.394 29.2913 16.079 29.2809H16.082ZM17.0994 28.2015C16.4325 28.0221 15.73 28.0221 15.0632 28.2015C14.7112 28.3183 13.3996 28.5726 12.6972 27.7505C11.9948 26.9283 11.9342 26.5675 11.9342 26.5675C11.9342 26.5675 13.0876 27.7505 13.7087 27.6662C14.0494 27.6389 14.3721 27.502 14.6284 27.2758C14.6284 27.2758 14.0221 25.9243 14.0014 25.5723C13.9807 25.2204 14.5929 24.7901 15.4698 24.8093C15.7656 24.8093 15.9312 24.8182 16.0347 24.8182H16.1205C16.2225 24.8182 16.394 24.8182 16.6838 24.8093C17.5711 24.7901 18.1714 25.2204 18.1522 25.5723C18.133 25.9243 17.5252 27.2758 17.5252 27.2758C17.7816 27.502 18.1043 27.6389 18.445 27.6662C19.072 27.7446 20.2269 26.5675 20.2269 26.5675C20.2269 26.5675 20.1677 26.9224 19.4638 27.7505C18.76 28.5786 17.4498 28.3183 17.0964 28.2015H17.0994ZM12.0717 22.7849C12.0717 22.7849 13.8033 24.4115 12.9397 26.2496C12.9397 26.2496 12.8229 24.8906 12.4961 24.3553C12.5462 24.5893 12.5083 24.8336 12.3896 25.0415C12.3896 25.0415 11.3974 22.7716 9.82109 22.2319C9.82109 22.2319 11.458 22.291 12.187 23.2921C12.168 23.1194 12.1298 22.9493 12.0732 22.7849H12.0717ZM16.1426 23.0289C16.3136 23.0409 16.4824 23.0736 16.6454 23.1265C16.842 23.1826 17.0228 23.2838 17.1733 23.4223C16.8109 23.3603 16.4449 23.3217 16.0776 23.3069C15.7102 23.3216 15.3442 23.3601 14.9818 23.4223C15.1318 23.2839 15.3121 23.1826 15.5083 23.1265C15.6713 23.0736 15.8401 23.0409 16.011 23.0289H16.1426ZM15.2731 23.9324C15.5129 23.8568 15.7614 23.8121 16.0125 23.7993H16.1441C16.3952 23.8123 16.6436 23.857 16.8835 23.9324C17.1468 24.0065 17.3897 24.1401 17.5933 24.3228C17.0927 24.2354 16.5868 24.1816 16.079 24.1616C15.5709 24.1806 15.0645 24.2335 14.5634 24.3198C14.7678 24.1382 15.0111 24.0056 15.2746 23.9324H15.2731ZM22.3311 22.226C20.7548 22.7716 19.7611 25.0355 19.7611 25.0355C19.6425 24.8277 19.6051 24.5832 19.6561 24.3494C19.3322 24.8847 19.2125 26.2437 19.2125 26.2437C18.3474 24.4115 20.0805 22.779 20.0805 22.779C20.0224 22.9412 19.9827 23.1093 19.9622 23.2803C20.6941 22.2851 22.3326 22.226 22.3326 22.226H22.3311ZM3.8086 17.8963C3.8086 17.8963 2.56204 17.5857 2.46592 16.8907C2.46592 16.8907 3.9757 16.459 5.58159 13.1037C5.58159 13.1037 2.3698 6.13601 7.79968 1.85363C7.79968 1.85363 10.485 5.6569 12.5316 7.02915C12.6537 6.82232 12.7278 6.59074 12.7485 6.35146C12.7693 6.11218 12.7361 5.8713 12.6514 5.64655C12.6514 5.64655 13.8743 6.61363 14.417 7.47721C14.417 7.47721 14.7763 6.71714 14.7245 6.102C14.7245 6.102 15.7138 6.519 16.0776 7.46094C16.4413 6.519 17.4291 6.102 17.4291 6.102C17.3788 6.71714 17.7367 7.47721 17.7367 7.47721C18.2809 6.61363 19.5023 5.64655 19.5023 5.64655C19.418 5.87138 19.385 6.1122 19.4058 6.3514C19.4265 6.59061 19.5004 6.82217 19.6221 7.02915C21.6686 5.65542 24.354 1.85363 24.354 1.85363C29.7868 6.14192 26.5721 13.1037 26.5721 13.1037C28.178 16.459 29.6877 16.8907 29.6877 16.8907C29.5931 17.5857 28.3465 17.8963 28.3465 17.8963C29.5443 18.6637 30.7909 22.0204 30.7909 22.0204C30.3118 21.5398 28.3939 20.3421 28.3939 20.3421C28.3939 20.3421 29.1243 21.7409 29.6877 23.0748C30.2156 24.3213 30.504 26.7183 30.504 26.7183C29.5206 25.6152 27.8674 24.8965 27.8674 24.8965C29.2574 26.1904 29.8489 30.4891 29.8489 30.4891C28.6659 29.21 26.3961 29.0828 26.3961 29.0828C26.7732 29.6906 26.7022 30.5763 26.7022 30.5763C26.4065 30.2569 25.7248 29.9464 25.7248 29.9464C26.1832 30.4329 26.1403 31.8687 26.1403 31.8687C23.5377 30.2954 19.1518 33.8428 19.1518 33.8428C19.3426 32.2606 21.2886 30.8987 21.9703 30.6074C25.1584 29.241 24.3362 25.3328 24.3362 25.3328C26.0856 25.6211 27.8852 28.3775 27.8852 28.3775C27.8778 26.8485 25.8712 23.0082 25.8712 23.0082C26.9506 22.5764 28.2208 23.1561 28.2208 23.1561C27.9813 21.7661 26.8545 19.1295 26.8545 19.1295C27.5007 19.0334 28.9158 19.4652 28.9158 19.4652C27.4371 17.8593 25.1288 17.188 25.1288 17.188C25.2235 19.1103 23.8246 20.9277 23.8246 20.9277C20.2668 21.3106 18.9448 23.8511 18.9448 23.8511C19.3751 21.0711 21.5814 19.7107 22.3962 19.1783C23.2109 18.646 23.3973 16.5891 23.3973 16.5891C23.3555 16.7003 23.3061 16.8085 23.2494 16.9129C22.1448 19.6397 19.628 19.1606 19.2568 19.131C18.8857 19.1014 18.618 19.5362 18.618 19.5362C18.618 19.5362 18.4997 18.8604 18.9138 17.6271C19.3278 16.3939 21.3891 16.592 21.3891 16.592C21.7233 16.6719 21.5281 17.3107 21.5281 17.3107C21.8804 17.0324 22.1778 16.6909 22.405 16.3037C21.4225 16.0827 20.4041 16.0741 19.418 16.2786C19.6812 16.0627 19.8483 15.0808 19.8483 15.0808C19.8483 15.0808 18.0029 16.2786 17.5238 18.1965C17.0506 20.0877 18.581 22.1639 16.1071 22.2201H16.0214C13.546 22.1639 15.0765 20.0877 14.6033 18.1965C14.1242 16.2741 12.2787 15.0808 12.2787 15.0808C12.2787 15.0808 12.4458 16.0627 12.7105 16.2786C11.7244 16.0741 10.706 16.0827 9.7235 16.3037C9.95018 16.6908 10.2471 17.0324 10.5989 17.3107C10.5989 17.3107 10.4037 16.6719 10.7379 16.592C10.7379 16.592 12.7948 16.4028 13.2133 17.6271C13.6318 18.8515 13.509 19.5362 13.509 19.5362C13.509 19.5362 13.2355 19.1059 12.8702 19.131C12.505 19.1561 9.98671 19.6338 8.87767 16.9129C8.82094 16.8085 8.77153 16.7003 8.72979 16.5891C8.72979 16.5891 8.91611 18.6504 9.73089 19.1783C10.5457 19.7062 12.7504 21.0711 13.1822 23.8511C13.1822 23.8511 11.8588 21.3106 8.30244 20.9277C8.30244 20.9277 6.90209 19.1059 6.99821 17.188C6.99821 17.188 4.68548 17.8593 3.2112 19.4652C3.2112 19.4652 4.62486 19.0334 5.27254 19.1295C5.27254 19.1295 4.14575 21.7661 3.9062 23.1561C3.9062 23.1561 5.17642 22.5809 6.25441 23.0082C6.25441 23.0082 4.24778 26.8529 4.24187 28.3775C4.24187 28.3775 6.03852 25.6211 7.7908 25.3328C7.7908 25.3328 6.97603 29.241 10.1568 30.6074C10.8385 30.9031 12.7845 32.2606 12.9767 33.8428C12.9767 33.8428 8.58931 30.2939 5.98676 31.8687C5.98676 31.8687 5.94536 30.4388 6.40228 29.9464C6.40228 29.9464 5.7132 30.2569 5.42633 30.5763C5.42633 30.5763 5.35387 29.6891 5.73094 29.0828C5.73094 29.0828 3.46258 29.21 2.2796 30.4891C2.2796 30.4891 2.87109 26.1904 4.26109 24.8965C4.26109 24.8965 2.6064 25.6152 1.62453 26.7183C1.62453 26.7183 1.9114 24.3213 2.4393 23.0748C3.00418 21.7439 3.73319 20.3421 3.73319 20.3421C3.73319 20.3421 1.81085 21.5398 1.33618 22.0204C1.36279 22.0204 2.60936 18.6637 3.8086 17.8963Z" fill="white"/>
<path d="M20.609 17.7495L20.1284 17.8486C20.1437 17.877 20.1551 17.9074 20.1624 17.9388C20.1741 17.9822 20.1769 18.0276 20.1704 18.0721C20.1639 18.1166 20.1485 18.1593 20.1249 18.1976C20.1013 18.2359 20.0701 18.269 20.0333 18.2948C19.9965 18.3206 19.9548 18.3386 19.9107 18.3477C19.8667 18.3568 19.8212 18.3568 19.7772 18.3477C19.7332 18.3385 19.6914 18.3205 19.6546 18.2947C19.6178 18.2688 19.5867 18.2357 19.5631 18.1974C19.5396 18.1591 19.5241 18.1164 19.5177 18.0719C19.5124 18.04 19.5124 18.0076 19.5177 17.9758L19.0371 18.0748C19.0371 18.1059 19.0371 18.1369 19.046 18.1695C19.0931 18.3776 19.2201 18.559 19.3995 18.6745C19.5789 18.7901 19.7965 18.8306 20.0055 18.7874C20.2145 18.7442 20.3983 18.6207 20.5172 18.4435C20.6361 18.2663 20.6807 18.0495 20.6415 17.8397C20.6329 17.8089 20.6221 17.7787 20.609 17.7495Z" fill="white"/>
<path d="M12.153 18.8024C12.3646 18.846 12.5849 18.8039 12.7654 18.6852C12.9459 18.5665 13.0719 18.381 13.1157 18.1695C13.1157 18.1369 13.1231 18.1059 13.126 18.0748L12.6454 17.9758C12.6491 18.0077 12.6491 18.0399 12.6454 18.0719C12.639 18.1164 12.6236 18.1591 12.6 18.1974C12.5765 18.2357 12.5453 18.2688 12.5085 18.2947C12.4717 18.3205 12.43 18.3385 12.3859 18.3477C12.3419 18.3568 12.2965 18.3568 12.2524 18.3477C12.2084 18.3386 12.1666 18.3206 12.1298 18.2948C12.093 18.269 12.0618 18.2359 12.0382 18.1976C12.0147 18.1593 11.9992 18.1166 11.9927 18.0721C11.9863 18.0276 11.989 17.9822 12.0007 17.9388C12.0074 17.9072 12.0189 17.8767 12.0347 17.8486L11.5541 17.7495C11.5427 17.779 11.5329 17.8092 11.5246 17.8397C11.4812 18.0506 11.5229 18.2701 11.6406 18.4504C11.7583 18.6307 11.9425 18.7572 12.153 18.8024Z" fill="white"/>
<path d="M7.16579 11.4546C6.02274 9.2099 6.595 6.47574 6.595 6.47574C6.8804 8.0772 9.03933 10.6383 9.03933 10.6383C8.6312 11.2919 7.28557 13.0043 7.28557 13.0043C10.3051 12.0239 11.3254 10.0247 11.3254 10.0247C10.6728 9.53693 10.0776 8.97687 9.55097 8.3552L8.45671 8.69678L9.10587 7.81842C8.78203 7.41325 8.48629 7.00364 8.21864 6.6103L7.3802 6.94301L7.97169 6.24949C7.5104 5.54634 7.08928 4.81764 6.71034 4.06689C4.14032 8.63763 6.50628 12.2694 6.50628 12.2694L7.16579 11.4546Z" fill="white"/>
<path d="M24.8704 13.0052C24.8704 13.0052 23.5233 11.2914 23.1152 10.6393C23.1152 10.6393 25.2771 8.07815 25.564 6.47669C25.564 6.47669 26.1348 9.21085 24.9932 11.4555L25.6453 12.2718C25.6453 12.2718 28.0113 8.64006 25.4412 4.06934C25.0625 4.8199 24.6419 5.54858 24.1813 6.25193L24.7802 6.94545L23.9403 6.61274C23.6741 7.00607 23.3769 7.41568 23.0531 7.82085L23.7008 8.69921L22.6065 8.35763C22.0799 8.9793 21.4846 9.53936 20.832 10.0271C20.832 10.0271 21.8509 12.0249 24.8704 13.0052Z" fill="white"/>
<path d="M42.7966 21.248L45.0295 14.8199L47.2787 21.248H49.9744L53.7067 10.0037H50.5008L48.5548 16.4628L46.4018 9.97119H43.7386L41.5856 16.4628L39.6396 10.0037H36.3701L40.1024 21.248H42.7966Z" fill="white"/>
<path d="M59.7682 21.3912C63.2136 21.3912 65.7969 18.7916 65.7969 15.5857V15.5532C65.7969 12.3473 63.2446 9.78613 59.7992 9.78613C56.3538 9.78613 53.7705 12.3798 53.7705 15.5842V15.6168C53.7705 18.8226 56.3228 21.3912 59.7682 21.3912ZM56.9497 15.5532C56.9497 13.9428 58.081 12.5706 59.7726 12.5706C61.4643 12.5706 62.6428 13.9754 62.6428 15.5857V15.6182C62.6428 17.2286 61.5101 18.5993 59.8037 18.5993C58.0972 18.5993 56.9497 17.196 56.9497 15.5842V15.5532Z" fill="white"/>
<path d="M75.7766 18.4558H70.3704V10.0034H67.2754V21.1678H75.7766V18.4558Z" fill="white"/>
<path d="M79.8625 17.1797H85.1416V14.6126H79.8625V12.7139H85.6991V10.0034H76.7676V21.1678H79.8625V17.1797Z" fill="white"/>
<path d="M97.684 15.5531V15.522C97.684 12.2999 95.3713 10.0034 91.3832 10.0034H87.0771V21.1678H91.3196C95.3388 21.1678 97.684 18.7752 97.684 15.5531ZM90.1721 12.7435H91.432C93.2819 12.7435 94.5107 13.7786 94.5107 15.5664V15.5989C94.5107 17.4015 93.2819 18.4218 91.432 18.4218H90.1721V12.7435Z" fill="white"/>
<path d="M108.215 18.5356H102.218V16.7656H107.577V14.3257H102.218V12.6341H108.136V10.0034H99.1553V21.1678H108.215V18.5356Z" fill="white"/>
<path d="M112.993 15.0429L117.762 21.1678H120.472V10.0034H117.412V15.9035L112.817 10.0034H109.931V21.1678H112.993V15.0429Z" fill="white"/>
<path d="M43.7367 24.1846C43.5588 24.0239 43.35 23.9011 43.123 23.8238C42.8583 23.7342 42.5802 23.6907 42.3008 23.6951H40.2129V28.8071H41.3367V27.2736H42.1914C42.4646 27.2758 42.7366 27.238 42.9988 27.1613C43.2377 27.0917 43.4607 26.9762 43.6554 26.8211C43.8441 26.67 43.9958 26.4779 44.099 26.2592C44.2104 26.0138 44.2654 25.7465 44.2601 25.477V25.4637C44.263 25.217 44.2168 24.9722 44.1241 24.7435C44.0364 24.5317 43.9042 24.3411 43.7367 24.1846ZM43.1186 25.4992C43.121 25.6024 43.1014 25.705 43.0612 25.8001C43.0209 25.8952 42.9608 25.9807 42.8849 26.0507C42.7038 26.2084 42.4681 26.2886 42.2284 26.274H41.3412V24.711H42.2106C42.4495 24.6974 42.6856 24.7669 42.879 24.9077C42.9618 24.9782 43.027 25.067 43.0693 25.1671C43.1117 25.2673 43.1301 25.3759 43.123 25.4844L43.1186 25.4992Z" fill="white"/>
<path d="M49.7608 26.6242C49.7608 27.0323 49.6632 27.3399 49.4651 27.5439C49.3589 27.6488 49.232 27.7303 49.0924 27.783C48.9528 27.8357 48.8037 27.8586 48.6547 27.85C48.5047 27.8591 48.3544 27.8353 48.2145 27.7804C48.0746 27.7255 47.9483 27.6408 47.8444 27.5321C47.6472 27.3202 47.5486 27.0052 47.5486 26.5872V23.6948H46.4248V26.6168C46.4248 27.3709 46.622 27.9378 47.0163 28.3173C47.4106 28.6968 47.9528 28.8866 48.6429 28.8866C48.958 28.8888 49.2713 28.8388 49.5701 28.7387C49.8359 28.6512 50.0782 28.504 50.2784 28.3084C50.4783 28.1046 50.6299 27.8585 50.722 27.5883C50.833 27.2619 50.886 26.9186 50.8787 26.5739V23.6948H49.7549L49.7608 26.6242Z" fill="white"/>
<path d="M56.938 26.843L54.5439 23.6948H53.5059V28.8068H54.6164V25.5565L57.0918 28.8068H58.0485V23.6948H56.938V26.843Z" fill="white"/>
<path d="M60.2295 24.7329H61.7851V28.8068H62.9089V24.7329H64.4645V23.6948H60.2295V24.7329Z" fill="white"/>
<path d="M70.9971 23.6602L68.8057 28.8076H69.962L70.4293 27.6616H72.5897L73.0585 28.8076H74.2326L72.0322 23.6602H70.9971ZM70.8226 26.6753L71.5029 25.0176L72.1801 26.6753H70.8226Z" fill="white"/>
<path d="M78.8065 27.7602C78.641 27.8539 78.4521 27.8981 78.2623 27.8873C77.9846 27.89 77.7097 27.8325 77.4564 27.7188C77.1975 27.6002 76.9553 27.4481 76.7362 27.2663L76.0723 28.0618C76.3686 28.3334 76.7159 28.5435 77.0941 28.6799C77.4617 28.8123 77.8494 28.8803 78.2401 28.8811C78.4969 28.8841 78.7527 28.8482 78.9987 28.7746C79.2137 28.7113 79.4145 28.6074 79.5902 28.4685C79.7544 28.3342 79.8859 28.1643 79.9747 27.9716C80.07 27.7593 80.1174 27.5286 80.1137 27.2959V27.2811C80.1186 27.0835 80.0823 26.8871 80.0072 26.7044C79.9353 26.5424 79.8276 26.3988 79.6923 26.2844C79.5385 26.1559 79.3653 26.0526 79.1791 25.9783C78.9542 25.8851 78.723 25.808 78.4871 25.7476C78.2682 25.69 78.0863 25.6382 77.9429 25.5998C77.8242 25.5669 77.7096 25.5208 77.6013 25.4622C77.5294 25.4247 77.4698 25.3672 77.4298 25.2966C77.3963 25.2302 77.38 25.1565 77.3824 25.0822V25.0674C77.3824 25.0052 77.3972 24.9438 77.4258 24.8885C77.4543 24.8331 77.4958 24.7855 77.5466 24.7495C77.6925 24.6547 77.8654 24.61 78.039 24.6223C78.2651 24.6236 78.4887 24.6693 78.6971 24.7569C78.9328 24.8564 79.1577 24.9798 79.3684 25.1251L79.9525 24.2793C79.6932 24.0712 79.4008 23.9082 79.0874 23.7972C78.7547 23.6816 78.4045 23.6246 78.0523 23.6286C77.8075 23.6261 77.5638 23.6631 77.3307 23.738C77.1241 23.8046 76.9327 23.9111 76.7673 24.0515C76.6121 24.1861 76.4872 24.3518 76.4005 24.538C76.3119 24.7366 76.2675 24.952 76.2704 25.1694V25.1842C76.2634 25.4025 76.3048 25.6197 76.3917 25.8201C76.4694 25.9872 76.586 26.1332 76.7318 26.246C76.8934 26.3697 77.0735 26.4671 77.2656 26.5343C77.496 26.6188 77.731 26.6899 77.9695 26.7472C78.1464 26.7878 78.3211 26.8371 78.493 26.8951C78.6031 26.9328 78.7087 26.9824 78.808 27.043C78.8705 27.0809 78.9216 27.1351 78.9558 27.1997C78.9836 27.2605 78.9972 27.3267 78.9958 27.3934V27.4082C78.9973 27.4783 78.9807 27.5475 78.9475 27.6092C78.9144 27.6708 78.8658 27.7229 78.8065 27.7602Z" fill="white"/>
<path d="M87.4273 23.6602L85.2373 28.8076H86.3833L86.8506 27.6616H89.0125L89.4797 28.8076H90.6627L88.4713 23.6602H87.4273ZM87.2528 26.6753L87.9315 25.0176L88.6103 26.6753H87.2528Z" fill="white"/>
<path d="M96.0557 28.8071H97.181V27.2736H98.0357C98.3084 27.2759 98.5799 27.2381 98.8416 27.1613C99.0809 27.0916 99.3044 26.9761 99.4996 26.8212C99.688 26.6698 99.8397 26.4777 99.9432 26.2592C100.055 26.014 100.11 25.7466 100.104 25.477V25.4637C100.108 25.2171 100.062 24.9723 99.9699 24.7435C99.8825 24.5315 99.7504 24.3408 99.5824 24.1846C99.4045 24.0239 99.1957 23.9011 98.9688 23.8238C98.7046 23.7343 98.427 23.6907 98.1481 23.6951H96.0557V28.8071ZM97.181 24.711H98.049C98.2878 24.6974 98.524 24.7669 98.7174 24.9077C98.8006 24.9779 98.8662 25.0666 98.9088 25.1668C98.9514 25.267 98.97 25.3758 98.9628 25.4844V25.4992C98.9645 25.6023 98.9446 25.7047 98.9044 25.7997C98.8641 25.8947 98.8045 25.9802 98.7292 26.0507C98.5474 26.2082 98.3113 26.2884 98.0712 26.274H97.1839L97.181 24.711Z" fill="white"/>
<path d="M103.688 23.6602L101.496 28.8076H102.642L103.109 27.6616H105.271L105.739 28.8076H106.914L104.724 23.6602H103.688ZM103.512 26.6753L104.19 25.0176L104.871 26.6753H103.512Z" fill="white"/>
<path d="M109.297 28.1316C109.535 28.3707 109.818 28.5606 110.129 28.6906C110.46 28.8284 110.816 28.8978 111.175 28.8947C111.4 28.8968 111.625 28.876 111.846 28.8326C112.036 28.7941 112.221 28.7331 112.397 28.6507C112.562 28.5726 112.718 28.4758 112.86 28.3623C113.006 28.2464 113.143 28.1193 113.27 27.9823L112.55 27.2666C112.369 27.4394 112.167 27.5885 111.948 27.7102C111.718 27.8226 111.464 27.8774 111.209 27.8699C111.007 27.8726 110.807 27.8316 110.622 27.7497C110.437 27.6678 110.273 27.5468 110.139 27.3952C110.011 27.2446 109.91 27.0717 109.844 26.8851C109.77 26.6863 109.733 26.4759 109.734 26.264V26.2315C109.733 26.021 109.77 25.8121 109.844 25.6148C109.913 25.4276 110.017 25.2551 110.15 25.1062C110.284 24.9573 110.449 24.8386 110.633 24.7581C110.816 24.6775 111.015 24.6369 111.216 24.6389C111.457 24.6335 111.696 24.6841 111.914 24.7868C112.136 24.8994 112.341 25.0422 112.523 25.2112L113.239 24.386C113.121 24.2684 112.994 24.1606 112.859 24.0637C112.72 23.9652 112.572 23.8819 112.415 23.8152C112.242 23.7437 112.062 23.6902 111.878 23.6555C111.663 23.6141 111.444 23.5943 111.225 23.5964C110.854 23.5919 110.486 23.6629 110.144 23.8049C109.829 23.9369 109.543 24.1304 109.304 24.3742C108.823 24.8759 108.558 25.5456 108.565 26.2404V26.2551C108.561 26.6098 108.628 26.9616 108.761 27.2902C108.883 27.6031 109.065 27.889 109.297 28.1316Z" fill="white"/>
<path d="M120.066 23.6948H118.707L116.634 25.9292V23.6948H115.509V28.8068H116.634V27.2438L117.226 26.6301L118.811 28.8068H120.161L117.984 25.8641L120.066 23.6948Z" fill="white"/>
</svg>
