
<svg width="388" height="319" viewBox="0 0 388 319" fill="none" xmlns="http://www.w3.org/2000/svg">
<path d="M193.89 318.564C300.972 318.564 387.78 313.496 387.78 307.244C387.78 300.992 300.972 295.924 193.89 295.924C86.8075 295.924 0 300.992 0 307.244C0 313.496 86.8075 318.564 193.89 318.564Z" fill="#868C9E"/>
<path d="M137.96 7.21432C138.96 3.00432 149.42 -0.995679 158.42 5.21432C162.41 7.91586 165.402 11.8524 166.938 16.4194C168.473 20.9864 168.467 25.9312 166.92 30.4943C162.09 44.7943 187.3 44.2643 193.14 68.3743C197.75 87.3743 193.48 114.284 167.75 112.824C128.48 110.594 131.87 72.2143 130.15 52.0443C128.43 31.8743 107 9.25432 137.96 7.21432Z" fill="#263238"/>
<path d="M124.99 61.0643C124.82 63.9843 124.48 66.6543 124.1 69.4243C123.72 72.1943 123.19 74.9043 122.6 77.6243C122.01 80.3443 121.34 83.0643 120.49 85.7443C119.669 88.4641 118.694 91.1351 117.57 93.7443L116.69 95.7443C116.56 96.0343 116.32 96.4743 116.14 96.8443C115.96 97.2143 115.72 97.5543 115.51 97.9143C114.688 99.1967 113.772 100.417 112.77 101.564C110.907 103.697 108.902 105.701 106.77 107.564C102.636 111.218 98.2376 114.56 93.61 117.564L90.95 114.004C92.83 112.184 94.75 110.304 96.6 108.424C98.45 106.544 100.28 104.634 102.02 102.694C103.734 100.813 105.353 98.8477 106.87 96.8043C107.563 95.8477 108.191 94.8454 108.75 93.8043C108.86 93.5743 109 93.3343 109.09 93.1143C109.18 92.8943 109.28 92.7143 109.39 92.3843L110.07 90.6243C111.786 85.7922 113.123 80.8339 114.07 75.7943C114.58 73.2543 114.95 70.6743 115.33 68.1043C115.71 65.5343 116 62.8843 116.22 60.4443L124.99 61.0643Z" fill="#FFB573"/>
<path d="M118.99 50.5643C115.44 51.4643 112.99 66.0843 112.99 66.0843L126.58 75.3243C126.58 75.3243 132.17 57.9943 129.43 54.0843C126.55 50.0043 124.17 49.2443 118.99 50.5643Z" fill="#C72A2A"/>
<path opacity="0.2" d="M119.31 53.8243L116.58 68.5643L122.08 72.2943L119.31 53.8243Z" fill="black"/>
<path d="M92.57 112.784L83.42 114.244L88.64 120.024C88.64 120.024 94.03 118.794 94.98 115.344L92.57 112.784Z" fill="#FFB573"/>
<path d="M79.09 115.394L84.31 121.044L88.64 120.024L83.42 114.244L79.09 115.394Z" fill="#FFB573"/>
<path d="M138.21 296.604H129.59L129.01 276.644H137.63L138.21 296.604Z" fill="#FFB573"/>
<path d="M197.81 271.204L189.83 274.464L179.72 257.034L187.7 253.774L197.81 271.204Z" fill="#FFB573"/>
<path d="M188.33 273.264L196.65 268.324C196.793 268.235 196.963 268.202 197.128 268.229C197.294 268.257 197.444 268.344 197.55 268.474L202.41 274.474C202.522 274.63 202.6 274.807 202.64 274.995C202.68 275.182 202.681 275.376 202.642 275.564C202.604 275.752 202.527 275.93 202.416 276.086C202.306 276.243 202.164 276.375 202 276.474C199.07 278.144 197.57 278.804 193.91 280.984C191.66 282.324 186.36 286.904 183.25 288.754C180.14 290.604 178.15 287.624 179.25 286.574C182.917 283.26 185.695 279.079 187.33 274.414C187.524 273.929 187.876 273.523 188.33 273.264Z" fill="#263238"/>
<path d="M129.29 295.614H138.98C139.145 295.61 139.305 295.667 139.431 295.774C139.556 295.881 139.638 296.031 139.66 296.194L140.77 303.864C140.79 304.057 140.768 304.253 140.708 304.437C140.648 304.621 140.549 304.791 140.419 304.935C140.289 305.079 140.13 305.195 139.953 305.274C139.776 305.353 139.584 305.394 139.39 305.394C136.01 305.334 134.39 305.134 130.12 305.134C127.5 305.134 122.12 305.404 118.47 305.404C114.82 305.404 114.66 301.834 116.16 301.504C122.92 300.054 125.58 298.054 127.85 296.144C128.252 295.803 128.762 295.615 129.29 295.614V295.614Z" fill="#263238"/>
<g opacity="0.2">
<path opacity="0.2" d="M129.02 276.654L129.31 286.944H137.93L137.64 276.654H129.02Z" fill="black"/>
<path opacity="0.2" d="M187.71 253.774L179.72 257.034L184.94 266.024L192.92 262.764L187.71 253.774Z" fill="black"/>
</g>
<path d="M118.99 50.5643C118.99 50.5643 114.88 52.0043 123.11 102.564H158.11C157.52 88.3143 157.51 79.5643 164.32 50.2943C159.419 49.2665 154.449 48.5981 149.45 48.2943C144.16 47.9139 138.85 47.9139 133.56 48.2943C126.73 49.0043 118.99 50.5643 118.99 50.5643Z" fill="#C72A2A"/>
<path opacity="0.2" d="M161.43 61.8843C158.26 62.6743 155.33 66.1343 155.68 72.5043C155.877 75.3935 156.89 78.1675 158.6 80.5043C159.16 75.6043 160.1 69.9143 161.6 62.6343L161.43 61.8843Z" fill="black"/>
<path d="M135.4 62.3343C135.4 62.3343 139.95 65.1443 141.14 69.3343C146.08 65.7143 152.79 55.6443 153.06 49.6143C153.061 49.4388 153.028 49.2648 152.962 49.1023C152.895 48.9398 152.798 48.792 152.674 48.6674C152.55 48.5428 152.403 48.444 152.241 48.3765C152.079 48.309 151.905 48.2743 151.73 48.2743C150.969 48.2547 150.207 48.2881 149.45 48.3743L135.4 62.3343Z" fill="#FAFAFA"/>
<path d="M135.4 62.3343C135.4 62.3343 130.85 65.1443 129.66 69.3343C124.35 65.4443 127.3 52.6043 130.34 48.3343C131.41 48.2215 132.49 48.2215 133.56 48.3343L135.4 62.3343Z" fill="#FAFAFA"/>
<path d="M147.89 30.4543C146.89 35.5643 145.89 44.9343 149.46 48.3543C146.143 54.2167 141.284 59.0586 135.41 62.3543C128.32 56.6943 133.57 48.3543 133.57 48.3543C139.27 46.9943 139.12 42.7543 138.13 38.7843L147.89 30.4543Z" fill="#FFB573"/>
<path opacity="0.2" d="M143.89 33.8543L138.11 38.7843C138.36 39.7073 138.524 40.6513 138.6 41.6043C140.78 41.2843 144.21 39.4343 144.68 37.0643C144.89 35.9443 144.09 34.3843 143.89 33.8543Z" fill="black"/>
<path d="M156.45 22.2343C154.09 30.4543 153.26 33.9843 148.1 37.3343C140.34 42.3343 130.76 37.6543 130.62 28.8943C130.49 21.0043 134.38 8.89432 143.28 7.38432C145.24 7.04211 147.254 7.207 149.132 7.8633C151.01 8.51961 152.689 9.6455 154.009 11.1339C155.329 12.6223 156.247 14.4236 156.674 16.3666C157.101 18.3096 157.024 20.3295 156.45 22.2343Z" fill="#FFB573"/>
<path d="M138.7 8.11432C139.09 10.8943 154.31 19.8343 157.2 15.1743C160.09 10.5143 155.93 7.00431 149.45 6.11431C145.743 5.53243 141.949 6.23831 138.7 8.11432V8.11432Z" fill="#263238"/>
<path d="M148.62 9.62433C146.75 12.0843 150.71 29.8043 156.38 28.1343C162.05 26.4643 161.79 20.7943 157.85 15.5643C155.621 12.5038 152.329 10.3856 148.62 9.62433Z" fill="#263238"/>
<path d="M123.11 102.584C123.11 102.584 116.31 169.004 116.89 195.254C117.48 222.594 127.5 284.954 127.5 284.954H139.15C139.15 284.954 137.31 224.194 138.34 197.344C139.46 168.074 148.76 102.584 148.76 102.584H123.11Z" fill="#313A53"/>
<path opacity="0.4" d="M123.11 102.584C123.11 102.584 116.31 169.004 116.89 195.254C117.48 222.594 127.5 284.954 127.5 284.954H139.15C139.15 284.954 137.31 224.194 138.34 197.344C139.46 168.074 148.76 102.584 148.76 102.584H123.11Z" fill="#525C78"/>
<path d="M140.14 285.364H126.47L125.47 281.004L140.78 280.474L140.14 285.364Z" fill="#263238"/>
<path opacity="0.2" d="M138.21 119.104C129.61 136.394 136.48 167.944 139.52 179.684C141.08 162.054 143.71 140.504 145.76 124.684C144.45 115.724 142.17 111.124 138.21 119.104Z" fill="black"/>
<path d="M132.35 102.584C132.35 102.584 140.28 171.584 146.27 193.764C153.38 220.074 182.27 264.964 182.27 264.964L193.15 260.524C193.15 260.524 174.5 209.414 169.06 195.524C157.46 165.934 167.39 121.854 158.12 102.524L132.35 102.584Z" fill="#313A53"/>
<path opacity="0.4" d="M132.35 102.584C132.35 102.584 140.28 171.584 146.27 193.764C153.38 220.074 182.27 264.964 182.27 264.964L193.15 260.524C193.15 260.524 174.5 209.414 169.06 195.524C157.46 165.934 167.39 121.854 158.12 102.524L132.35 102.584Z" fill="#525C78"/>
<path d="M194.63 260.574L181.13 266.084L177.96 262.434L193.55 255.234L194.63 260.574Z" fill="#263238"/>
<path d="M35.5 14.7643C26.7913 22.4719 20.5637 32.5888 17.6049 43.8358C14.646 55.0827 15.0887 66.9545 18.877 77.9498C22.6653 88.9452 29.6291 98.5702 38.8876 105.608C48.1462 112.645 59.2838 116.779 70.8919 117.487C82.5 118.195 94.0572 115.444 104.102 109.583C114.147 103.723 122.228 95.0149 127.324 84.5612C132.42 74.1075 134.302 62.3774 132.731 50.8543C131.16 39.3312 126.208 28.5327 118.5 19.8243C108.163 8.14949 93.6123 1.05796 78.0477 0.10908C62.4831 -0.839799 47.1788 4.43166 35.5 14.7643V14.7643ZM107.27 95.8643C99.9393 102.35 90.8499 106.517 81.1512 107.837C71.4525 109.157 61.5801 107.572 52.7824 103.281C43.9848 98.9909 36.657 92.1879 31.7256 83.7327C26.7943 75.2776 24.481 65.55 25.0781 55.7801C25.6753 46.0102 29.1561 36.6367 35.0805 28.8451C41.0049 21.0535 49.1067 15.1936 58.3614 12.0064C67.6161 8.81928 77.6081 8.44804 87.0738 10.9396C96.5395 13.4312 105.054 18.6738 111.54 26.0043C115.847 30.8717 119.153 36.5398 121.269 42.6848C123.385 48.8299 124.27 55.3316 123.874 61.8187C123.477 68.3058 121.807 74.6513 118.958 80.4929C116.109 86.3344 112.138 91.5577 107.27 95.8643V95.8643Z" fill="#525C78"/>
<path opacity="0.3" d="M71.71 104.074C62.753 103.535 54.1571 100.352 47.0097 94.9266C39.8623 89.5014 34.4845 82.0781 31.5568 73.5959C28.6291 65.1138 28.283 55.9538 30.5621 47.2749C32.8413 38.5959 37.6434 30.788 44.361 24.8388C51.0785 18.8895 59.4096 15.0664 68.3004 13.8529C77.1912 12.6394 86.2422 14.0902 94.3083 18.0217C102.374 21.9532 109.093 28.1887 113.615 35.9394C118.136 43.6901 120.258 52.6078 119.71 61.5643C118.974 73.5636 113.505 84.7801 104.505 92.7506C95.5056 100.721 83.7103 104.794 71.71 104.074V104.074Z" fill="#313A53"/>
<g opacity="0.5">
<path opacity="0.5" d="M77.23 13.5243H76.38L29.26 55.2243L29.2 56.0743C28.5887 65.9066 31.2084 75.6691 36.66 83.8743L103.89 24.3043C96.4146 17.9032 87.0536 14.1181 77.23 13.5243V13.5243Z" fill="#FAFAFA"/>
<path opacity="0.5" d="M108.28 28.5643L40.35 88.6743C42.6186 91.2941 45.1823 93.643 47.99 95.6743L114.25 37.0043C112.588 33.9726 110.585 31.1409 108.28 28.5643V28.5643Z" fill="#FAFAFA"/>
</g>
<path d="M120.74 103.274L113 110.124C112.437 110.621 111.7 110.875 110.95 110.83C110.201 110.785 109.5 110.445 109 109.884V109.884C108.508 109.319 108.257 108.583 108.302 107.835C108.347 107.087 108.684 106.387 109.24 105.884L116.98 99.0343C117.544 98.5386 118.282 98.2865 119.032 98.3334C119.781 98.3802 120.482 98.7222 120.98 99.2843V99.2843C121.476 99.8457 121.73 100.581 121.685 101.329C121.64 102.077 121.3 102.777 120.74 103.274V103.274Z" fill="#525C78"/>
<path d="M117.89 102.004C123.72 107.134 129.3 112.494 134.81 117.924C140.32 123.354 145.7 128.924 151.02 134.464C156.34 140.004 161.56 145.724 166.74 151.464C171.6 157.464 178.22 161.904 179.21 171.324C179.288 172.078 179.185 172.839 178.91 173.544C178.635 174.25 178.196 174.88 177.629 175.382C177.062 175.885 176.384 176.245 175.65 176.433C174.916 176.621 174.149 176.632 173.41 176.464C164.17 174.334 160.58 167.224 155.22 161.664C150.167 155.831 145.187 149.944 140.28 144.004C135.373 138.064 130.557 132.028 125.83 125.894C121.11 119.774 116.47 113.584 112.08 107.174C111.517 106.389 111.264 105.423 111.37 104.463C111.477 103.503 111.935 102.616 112.657 101.973C113.379 101.331 114.313 100.979 115.28 100.985C116.246 100.99 117.176 101.354 117.89 102.004Z" fill="#525C78"/>
<path d="M142.67 21.4943C142.52 22.1743 142.04 22.6443 141.59 22.4943C141.14 22.3443 140.91 21.7643 141.06 21.0943C141.21 20.4243 141.69 19.9443 142.14 20.0943C142.59 20.2443 142.82 20.8143 142.67 21.4943Z" fill="#263238"/>
<path d="M135 19.7943C134.85 20.4743 134.36 20.9443 133.92 20.8443C133.48 20.7443 133.24 20.1143 133.39 19.4343C133.54 18.7543 134.02 18.2843 134.47 18.3843C134.92 18.4843 135.15 19.1143 135 19.7943Z" fill="#263238"/>
<path d="M134.66 18.4643L133.13 17.6343C133.13 17.6343 133.68 19.0943 134.66 18.4643Z" fill="#263238"/>
<path d="M137.09 21.5443C136.141 22.9558 135.004 24.231 133.71 25.3343C134.001 25.6597 134.359 25.9177 134.76 26.0904C135.16 26.2632 135.594 26.3464 136.03 26.3343L137.09 21.5443Z" fill="#ED893E"/>
<path d="M139.14 29.8043C138.803 29.7806 138.469 29.7304 138.14 29.6543C138.114 29.6484 138.09 29.6375 138.069 29.6223C138.047 29.607 138.029 29.5877 138.015 29.5654C138.001 29.5431 137.992 29.5183 137.988 29.4924C137.983 29.4665 137.984 29.4399 137.99 29.4143C137.996 29.3887 138.007 29.3645 138.022 29.3431C138.037 29.3217 138.057 29.3035 138.079 29.2896C138.101 29.2757 138.126 29.2663 138.152 29.262C138.178 29.2576 138.204 29.2584 138.23 29.2643C139.07 29.4683 139.947 29.4724 140.789 29.2762C141.632 29.0799 142.416 28.6888 143.08 28.1343C143.097 28.1078 143.12 28.0855 143.146 28.0689C143.173 28.0523 143.203 28.042 143.234 28.0385C143.265 28.0351 143.297 28.0388 143.327 28.0492C143.356 28.0596 143.383 28.0766 143.406 28.0988C143.428 28.121 143.445 28.148 143.455 28.1776C143.466 28.2072 143.469 28.2388 143.466 28.2701C143.462 28.3013 143.452 28.3314 143.435 28.3581C143.419 28.3848 143.396 28.4074 143.37 28.4243C142.791 28.9229 142.119 29.3016 141.393 29.5385C140.667 29.7753 139.901 29.8657 139.14 29.8043Z" fill="#263238"/>
<path d="M157 30.4343C156.539 31.1144 155.949 31.6968 155.262 32.1482C154.576 32.5995 153.807 32.9108 153 33.0643C150.84 33.4643 150 31.4843 150.73 29.5543C151.41 27.8143 153.37 25.5543 155.45 25.9943C155.903 26.1069 156.321 26.3304 156.666 26.6448C157.01 26.9593 157.272 27.3546 157.425 27.7953C157.579 28.2359 157.621 28.7079 157.547 29.1686C157.472 29.6294 157.284 30.0643 157 30.4343V30.4343Z" fill="#FFB573"/>
<path d="M145.89 18.5043C145.809 18.529 145.722 18.5279 145.641 18.501C145.56 18.4741 145.49 18.4229 145.44 18.3543C144.33 16.8243 141.89 16.8443 141.87 16.8443C141.761 16.8443 141.657 16.8011 141.58 16.7242C141.503 16.6474 141.46 16.5431 141.46 16.4343C141.459 16.381 141.468 16.3279 141.488 16.2782C141.507 16.2285 141.536 16.1832 141.574 16.145C141.611 16.1068 141.655 16.0764 141.705 16.0557C141.754 16.035 141.807 16.0243 141.86 16.0243C141.98 16.0243 144.74 16.0243 146.1 17.8743C146.163 17.962 146.189 18.0711 146.172 18.1778C146.155 18.2846 146.097 18.3804 146.01 18.4443L145.89 18.5043Z" fill="#263238"/>
<path d="M133.4 14.1743C133.329 14.1693 133.261 14.1465 133.202 14.108C133.142 14.0695 133.094 14.0167 133.06 13.9543C133.011 13.8575 133.003 13.7452 133.036 13.6421C133.07 13.5391 133.143 13.4535 133.24 13.4043C133.812 13.0977 134.448 12.9314 135.097 12.9193C135.745 12.9071 136.387 13.0494 136.97 13.3343C137.062 13.3905 137.129 13.48 137.157 13.5843C137.185 13.6886 137.172 13.7996 137.12 13.8943C137.066 13.9885 136.976 14.0571 136.871 14.0853C136.766 14.1134 136.654 14.0987 136.56 14.0443C136.096 13.8255 135.587 13.7195 135.074 13.7351C134.561 13.7508 134.06 13.8876 133.61 14.1343C133.544 14.1621 133.472 14.1757 133.4 14.1743V14.1743Z" fill="#263238"/>
<path d="M185.02 276.534H184.89C184.697 276.49 184.518 276.397 184.371 276.264C184.224 276.131 184.113 275.962 184.05 275.774C183.994 275.664 183.969 275.541 183.978 275.417C183.987 275.294 184.029 275.175 184.1 275.074C184.73 274.174 187.85 274.284 188.2 274.304C188.24 274.303 188.28 274.315 188.312 274.338C188.345 274.362 188.369 274.396 188.38 274.434C188.393 274.472 188.396 274.513 188.387 274.552C188.378 274.591 188.358 274.626 188.33 274.654C187.56 275.414 186.09 276.664 185.02 276.534ZM187.72 274.684C186.47 274.684 184.8 274.824 184.47 275.294C184.443 275.341 184.428 275.395 184.428 275.449C184.428 275.504 184.443 275.557 184.47 275.604C184.511 275.73 184.583 275.844 184.679 275.934C184.775 276.025 184.892 276.091 185.02 276.124C185.59 276.254 186.58 275.704 187.72 274.684V274.684Z" fill="#313A53"/>
<path d="M187.89 274.684C186.82 274.554 184.89 273.824 184.63 272.984C184.576 272.831 184.577 272.664 184.632 272.511C184.686 272.358 184.792 272.229 184.93 272.144C185.052 272.047 185.195 271.978 185.347 271.942C185.499 271.905 185.657 271.903 185.81 271.934C187.04 272.174 188.32 274.304 188.38 274.394C188.395 274.425 188.403 274.46 188.403 274.494C188.403 274.529 188.395 274.563 188.38 274.594C188.361 274.625 188.335 274.65 188.303 274.668C188.272 274.685 188.236 274.694 188.2 274.694C188.097 274.701 187.993 274.697 187.89 274.684V274.684ZM185.68 272.324C185.501 272.304 185.322 272.354 185.18 272.464C184.97 272.624 184.98 272.754 185.02 272.844C185.22 273.414 186.77 274.124 187.81 274.264C187.35 273.574 186.47 272.474 185.74 272.334L185.68 272.324Z" fill="#313A53"/>
<path d="M126.06 297.114C125.323 297.184 124.585 296.997 123.97 296.584C123.83 296.462 123.723 296.306 123.658 296.131C123.594 295.957 123.574 295.769 123.6 295.584C123.604 295.472 123.638 295.364 123.698 295.269C123.758 295.174 123.841 295.097 123.94 295.044C125 294.454 128.44 296.214 128.82 296.414C128.857 296.434 128.888 296.465 128.907 296.502C128.927 296.54 128.935 296.582 128.93 296.624C128.926 296.666 128.908 296.706 128.879 296.737C128.85 296.768 128.812 296.788 128.77 296.794C127.879 296.988 126.971 297.095 126.06 297.114V297.114ZM124.52 295.334C124.39 295.327 124.259 295.351 124.14 295.404C124.101 295.427 124.067 295.459 124.043 295.497C124.018 295.535 124.004 295.579 124 295.624C123.985 295.745 123.999 295.869 124.04 295.983C124.082 296.098 124.151 296.201 124.24 296.284C124.76 296.754 126.18 296.834 128.09 296.514C126.975 295.923 125.768 295.524 124.52 295.334V295.334Z" fill="#313A53"/>
<path d="M128.73 296.814H128.65C127.65 296.354 125.59 294.494 125.75 293.514C125.75 293.284 125.95 292.994 126.51 292.934C126.713 292.913 126.918 292.933 127.113 292.995C127.307 293.057 127.487 293.159 127.64 293.294C128.73 294.194 128.93 296.514 128.93 296.614C128.936 296.649 128.931 296.684 128.917 296.716C128.903 296.748 128.879 296.775 128.85 296.794C128.813 296.814 128.771 296.821 128.73 296.814ZM126.68 293.314H126.55C126.18 293.314 126.16 293.504 126.15 293.554C126.05 294.134 127.43 295.604 128.48 296.234C128.399 295.255 128.015 294.325 127.38 293.574C127.189 293.401 126.938 293.307 126.68 293.314Z" fill="#313A53"/>
<path d="M142.33 20.1743L140.8 19.3343C140.8 19.3343 141.35 20.7943 142.33 20.1743Z" fill="#263238"/>
<path d="M158.64 100.524L159.53 103.654C159.65 103.904 159.37 104.154 158.96 104.154H122.89C122.58 104.154 122.32 103.994 122.3 103.794L121.98 100.664C121.98 100.444 122.23 100.264 122.58 100.264H158.03C158.146 100.247 158.264 100.262 158.372 100.308C158.48 100.353 158.573 100.429 158.64 100.524V100.524Z" fill="#313A53"/>
<path opacity="0.2" d="M158.64 100.524L159.53 103.654C159.65 103.904 159.37 104.154 158.96 104.154H122.89C122.58 104.154 122.32 103.994 122.3 103.794L121.98 100.664C121.98 100.444 122.23 100.264 122.58 100.264H158.03C158.146 100.247 158.264 100.262 158.372 100.308C158.48 100.353 158.573 100.429 158.64 100.524V100.524Z" fill="black"/>
<path d="M153.76 104.484H154.71C154.9 104.484 155.04 104.394 155.03 104.274L154.58 100.204C154.58 100.084 154.4 99.9843 154.22 99.9843H153.22C153.03 99.9843 152.88 100.084 152.9 100.204L153.34 104.274C153.4 104.394 153.57 104.484 153.76 104.484Z" fill="#313A53"/>
<path opacity="0.4" d="M153.76 104.484H154.71C154.9 104.484 155.04 104.394 155.03 104.274L154.58 100.204C154.58 100.084 154.4 99.9843 154.22 99.9843H153.22C153.03 99.9843 152.88 100.084 152.9 100.204L153.34 104.274C153.4 104.394 153.57 104.484 153.76 104.484Z" fill="white"/>
<path d="M125.6 104.484H126.55C126.74 104.484 126.88 104.394 126.87 104.274L126.43 100.204C126.43 100.084 126.25 99.9843 126.06 99.9843H125.11C124.92 99.9843 124.78 100.084 124.79 100.204L125.23 104.274C125.25 104.394 125.41 104.484 125.6 104.484Z" fill="#313A53"/>
<path opacity="0.4" d="M125.6 104.484H126.55C126.74 104.484 126.88 104.394 126.87 104.274L126.43 100.204C126.43 100.084 126.25 99.9843 126.06 99.9843H125.11C124.92 99.9843 124.78 100.084 124.79 100.204L125.23 104.274C125.25 104.394 125.41 104.484 125.6 104.484Z" fill="white"/>
<path d="M139.62 104.484H140.62C140.81 104.484 140.95 104.394 140.94 104.274L140.5 100.204C140.5 100.084 140.32 99.9843 140.13 99.9843H139.18C138.99 99.9843 138.85 100.084 138.86 100.204L139.3 104.274C139.27 104.394 139.43 104.484 139.62 104.484Z" fill="#313A53"/>
<path opacity="0.4" d="M139.62 104.484H140.62C140.81 104.484 140.95 104.394 140.94 104.274L140.5 100.204C140.5 100.084 140.32 99.9843 140.13 99.9843H139.18C138.99 99.9843 138.85 100.084 138.86 100.204L139.3 104.274C139.27 104.394 139.43 104.484 139.62 104.484Z" fill="white"/>
<path d="M137.08 109.564L128.58 105.764L131 114.194C131 114.194 136.4 115.414 138.75 112.704L137.08 109.564Z" fill="#FFB573"/>
<path d="M168.4 60.6943C168.79 63.6443 169.1 66.6143 169.45 69.5643L170.35 78.4643C170.67 81.4643 170.91 84.3943 171.19 87.3643L171.56 91.8143L171.66 92.9343C171.66 93.0443 171.66 93.5043 171.66 93.8243C171.66 94.1443 171.66 94.5143 171.66 94.8243C171.511 96.0956 171.106 97.3235 170.47 98.4343C169.44 100.145 168.081 101.634 166.47 102.814C165.12 103.833 163.688 104.739 162.19 105.524C159.389 106.972 156.476 108.192 153.48 109.174C150.55 110.174 147.61 111.004 144.66 111.744C141.71 112.484 138.76 113.094 135.71 113.564L134.71 109.314C137.46 108.404 140.27 107.474 143 106.424C145.73 105.374 148.46 104.344 151.08 103.154C153.659 102.026 156.158 100.723 158.56 99.2543C159.667 98.5855 160.718 97.8263 161.7 96.9843C162.47 96.3604 163.112 95.5929 163.59 94.7243C163.694 94.5342 163.749 94.3211 163.75 94.1043C163.75 94.1043 163.75 94.1043 163.75 94.0243C163.75 93.9443 163.75 94.0243 163.75 93.8043L163.59 92.7043L162.95 88.2743C162.56 85.2743 162.12 82.3643 161.76 79.4043L160.63 70.5343C160.31 67.5343 159.94 64.6143 159.63 61.6443L168.4 60.6943Z" fill="#FFB573"/>
<path d="M164.32 50.3143C167.82 51.3743 172.04 63.4543 172.04 63.4543L159.77 76.0843C159.77 76.0843 153.47 63.0843 154.94 58.5643C156.48 53.8443 160.32 49.0943 164.32 50.3143Z" fill="#C72A2A"/>
<path d="M121.55 107.514L123.95 114.454L131 114.194L128.58 105.764L121.55 107.514Z" fill="#FFB573"/>
<path d="M240.25 82.6243C242.55 66.1843 231.07 52.8543 214.63 52.8543H334.75C351.2 52.8543 362.67 66.1843 360.38 82.6243H240.25Z" fill="#263238"/>
<path opacity="0.7" d="M240.25 82.6243C242.55 66.1843 231.07 52.8543 214.63 52.8543H334.75C351.2 52.8543 362.67 66.1843 360.38 82.6243H240.25Z" fill="#313A53"/>
<path d="M214.63 52.8543H334.75C318.31 52.8543 303.12 66.1843 300.83 82.6243L273.67 277.464C271.38 293.914 256.19 307.244 239.75 307.244H179.17C162.73 307.244 151.26 293.914 153.55 277.464L180.7 82.6243C183 66.1843 198.18 52.8543 214.63 52.8543Z" fill="#313A53"/>
<path d="M214.12 277.464C211.83 293.914 223.3 307.244 239.75 307.244H119.62C103.18 307.244 91.71 293.914 94 277.464H214.12Z" fill="#263238"/>
<path opacity="0.7" d="M214.12 277.464C211.83 293.914 223.3 307.244 239.75 307.244H119.62C103.18 307.244 91.71 293.914 94 277.464H214.12Z" fill="#313A53"/>
<path opacity="0.4" d="M233.38 113.464H279.89C280.568 113.432 281.214 113.172 281.724 112.725C282.235 112.278 282.579 111.672 282.7 111.004C282.753 110.698 282.738 110.383 282.655 110.084C282.573 109.784 282.425 109.506 282.222 109.27C282.02 109.034 281.767 108.845 281.483 108.718C281.2 108.591 280.891 108.528 280.58 108.534H234.07C233.388 108.556 232.734 108.814 232.221 109.265C231.709 109.715 231.369 110.33 231.26 111.004V111.004C231.207 111.31 231.222 111.624 231.305 111.924C231.387 112.223 231.535 112.501 231.738 112.736C231.941 112.971 232.193 113.159 232.477 113.285C232.761 113.41 233.069 113.472 233.38 113.464Z" fill="white"/>
<path opacity="0.4" d="M232.1 122.634H266.29C266.971 122.613 267.623 122.356 268.136 121.908C268.648 121.459 268.989 120.846 269.1 120.174V120.174C269.153 119.868 269.138 119.554 269.055 119.255C268.973 118.955 268.825 118.678 268.622 118.443C268.419 118.207 268.167 118.02 267.883 117.894C267.599 117.768 267.291 117.707 266.98 117.714H232.79C232.109 117.733 231.455 117.99 230.942 118.439C230.429 118.888 230.089 119.501 229.98 120.174V120.174C229.927 120.48 229.942 120.794 230.025 121.094C230.107 121.393 230.255 121.671 230.458 121.906C230.661 122.141 230.913 122.329 231.197 122.455C231.481 122.58 231.789 122.642 232.1 122.634V122.634Z" fill="white"/>
<path opacity="0.4" d="M212.815 124.084C219.248 118.083 220.23 108.68 215.009 103.083C209.787 97.4855 200.339 97.813 193.906 103.814C187.473 109.816 186.49 119.218 191.712 124.815C196.933 130.413 206.381 130.085 212.815 124.084Z" fill="white"/>
<path d="M190.1 114.004C189.778 116.138 190.027 118.318 190.82 120.324C191.683 122.435 193.17 124.232 195.082 125.474C196.995 126.716 199.241 127.344 201.52 127.274C204.028 127.215 206.486 126.552 208.684 125.342C210.882 124.133 212.757 122.412 214.15 120.324C215.453 118.437 216.302 116.274 216.63 114.004C217.63 106.684 212.54 100.744 205.21 100.744C201.542 100.849 198.025 102.232 195.266 104.652C192.508 107.073 190.681 110.381 190.1 114.004V114.004Z" fill="white"/>
<path opacity="0.4" d="M193.71 119.004C194.371 120.622 195.511 122 196.976 122.952C198.442 123.905 200.163 124.387 201.91 124.334C203.836 124.29 205.723 123.782 207.411 122.854C209.1 121.927 210.54 120.606 211.61 119.004C209.118 117.205 206.113 116.255 203.04 116.294C199.74 116.322 196.512 117.26 193.71 119.004V119.004Z" fill="#263238"/>
<path opacity="0.4" d="M199.28 110.704C199.179 111.269 199.205 111.85 199.356 112.403C199.507 112.957 199.78 113.47 200.155 113.905C200.529 114.34 200.996 114.686 201.521 114.917C202.046 115.149 202.616 115.261 203.19 115.244C204.445 115.208 205.647 114.735 206.589 113.906C207.532 113.077 208.155 111.944 208.35 110.704C208.451 110.141 208.426 109.562 208.275 109.009C208.124 108.457 207.852 107.945 207.478 107.511C207.105 107.077 206.639 106.732 206.115 106.5C205.591 106.269 205.022 106.158 204.45 106.174C203.196 106.21 201.993 106.681 201.049 107.508C200.105 108.335 199.48 109.465 199.28 110.704V110.704Z" fill="#263238"/>
<path opacity="0.4" d="M227.8 153.534H243.49C244.171 153.513 244.823 153.257 245.336 152.808C245.848 152.359 246.189 151.746 246.3 151.074V151.074C246.353 150.768 246.338 150.454 246.255 150.155C246.173 149.855 246.025 149.578 245.822 149.343C245.619 149.108 245.367 148.92 245.083 148.794C244.799 148.668 244.491 148.607 244.18 148.614H228.48C227.8 148.634 227.148 148.89 226.636 149.34C226.125 149.789 225.787 150.402 225.68 151.074V151.074C225.627 151.38 225.642 151.694 225.725 151.994C225.807 152.293 225.955 152.571 226.158 152.806C226.361 153.041 226.613 153.229 226.897 153.355C227.181 153.48 227.489 153.542 227.8 153.534V153.534Z" fill="white"/>
<path opacity="0.4" d="M252.96 153.534H275.38C276.061 153.513 276.713 153.257 277.226 152.808C277.738 152.359 278.079 151.746 278.19 151.074V151.074C278.245 150.768 278.231 150.453 278.149 150.153C278.067 149.853 277.92 149.575 277.716 149.339C277.513 149.103 277.26 148.916 276.975 148.79C276.69 148.665 276.381 148.605 276.07 148.614H253.65C252.969 148.633 252.315 148.89 251.802 149.339C251.289 149.788 250.949 150.401 250.84 151.074V151.074C250.787 151.38 250.802 151.694 250.885 151.994C250.967 152.293 251.115 152.571 251.318 152.806C251.521 153.041 251.773 153.229 252.057 153.355C252.341 153.48 252.649 153.542 252.96 153.534V153.534Z" fill="white"/>
<path opacity="0.4" d="M226.52 162.714H264.95C265.632 162.693 266.286 162.435 266.799 161.984C267.311 161.533 267.651 160.918 267.76 160.244C267.813 159.938 267.798 159.624 267.715 159.325C267.633 159.025 267.485 158.748 267.282 158.513C267.079 158.277 266.827 158.09 266.543 157.964C266.259 157.838 265.951 157.777 265.64 157.784H227.2C226.521 157.808 225.871 158.065 225.36 158.514C224.85 158.962 224.511 159.574 224.4 160.244V160.244C224.345 160.551 224.359 160.866 224.441 161.167C224.523 161.468 224.671 161.746 224.873 161.983C225.076 162.219 225.33 162.408 225.614 162.534C225.899 162.661 226.208 162.722 226.52 162.714V162.714Z" fill="white"/>
<path opacity="0.4" d="M207.234 164.158C213.667 158.157 214.65 148.754 209.428 143.157C204.207 137.56 194.759 137.887 188.325 143.888C181.892 149.89 180.91 159.292 186.131 164.89C191.352 170.487 200.801 170.159 207.234 164.158Z" fill="white"/>
<path d="M184.51 154.004C184.191 156.138 184.443 158.319 185.24 160.324C186.095 162.432 187.573 164.23 189.475 165.477C191.378 166.724 193.616 167.361 195.89 167.304C198.399 167.246 200.857 166.584 203.055 165.375C205.254 164.165 207.128 162.443 208.52 160.354C209.832 158.471 210.684 156.306 211.01 154.034C212.01 146.714 206.92 140.774 199.59 140.774C195.931 140.885 192.425 142.266 189.673 144.68C186.921 147.094 185.096 150.391 184.51 154.004V154.004Z" fill="white"/>
<path opacity="0.4" d="M188.12 159.104C188.783 160.723 189.924 162.101 191.392 163.053C192.859 164.006 194.582 164.487 196.33 164.434C198.254 164.388 200.139 163.88 201.826 162.952C203.512 162.024 204.951 160.705 206.02 159.104C203.529 157.304 200.524 156.354 197.45 156.394C194.15 156.425 190.923 157.363 188.12 159.104V159.104Z" fill="#263238"/>
<path opacity="0.4" d="M193.7 150.774C193.599 151.338 193.625 151.918 193.775 152.471C193.926 153.024 194.198 153.536 194.571 153.971C194.945 154.406 195.41 154.752 195.934 154.984C196.458 155.216 197.027 155.329 197.6 155.314C198.856 155.279 200.06 154.805 201.004 153.977C201.948 153.148 202.572 152.015 202.77 150.774C202.871 150.211 202.846 149.632 202.695 149.079C202.544 148.527 202.272 148.015 201.898 147.581C201.525 147.147 201.059 146.802 200.535 146.57C200.011 146.339 199.442 146.228 198.87 146.244C197.616 146.28 196.413 146.751 195.469 147.578C194.525 148.405 193.9 149.535 193.7 150.774V150.774Z" fill="#263238"/>
<path opacity="0.4" d="M222.21 193.614H249.54C250.222 193.593 250.876 193.335 251.389 192.884C251.901 192.433 252.241 191.818 252.35 191.144C252.403 190.838 252.388 190.524 252.305 190.225C252.223 189.925 252.075 189.648 251.872 189.413C251.669 189.177 251.417 188.99 251.133 188.864C250.849 188.738 250.541 188.677 250.23 188.684H222.89C222.209 188.705 221.557 188.962 221.044 189.411C220.532 189.86 220.191 190.472 220.08 191.144V191.144C220.025 191.452 220.039 191.768 220.121 192.069C220.204 192.371 220.353 192.65 220.557 192.887C220.761 193.123 221.015 193.311 221.301 193.437C221.587 193.563 221.898 193.624 222.21 193.614Z" fill="white"/>
<path opacity="0.4" d="M220.89 202.784H263.5C264.179 202.752 264.827 202.49 265.337 202.041C265.848 201.592 266.191 200.983 266.31 200.314C266.362 200.008 266.345 199.693 266.261 199.394C266.177 199.095 266.028 198.818 265.824 198.583C265.621 198.348 265.368 198.16 265.084 198.034C264.799 197.909 264.491 197.847 264.18 197.854H221.58C220.899 197.875 220.247 198.132 219.734 198.581C219.222 199.03 218.881 199.642 218.77 200.314C218.715 200.621 218.729 200.936 218.811 201.237C218.893 201.538 219.041 201.816 219.244 202.053C219.446 202.289 219.7 202.478 219.984 202.604C220.269 202.731 220.578 202.792 220.89 202.784V202.784Z" fill="white"/>
<path opacity="0.2" d="M174.28 241.824H239.52C240.476 241.793 241.391 241.431 242.11 240.8C242.828 240.169 243.305 239.308 243.46 238.364V238.364C243.536 237.933 243.515 237.49 243.398 237.067C243.281 236.645 243.071 236.254 242.783 235.923C242.496 235.593 242.138 235.33 241.736 235.156C241.334 234.981 240.898 234.899 240.46 234.914H175.24C174.286 234.942 173.371 235.302 172.654 235.931C171.936 236.561 171.461 237.422 171.31 238.364V238.364C171.233 238.794 171.252 239.236 171.367 239.657C171.481 240.078 171.688 240.469 171.973 240.8C172.257 241.132 172.612 241.395 173.011 241.573C173.41 241.75 173.843 241.836 174.28 241.824V241.824Z" fill="white"/>
<path opacity="0.2" d="M172.49 254.684H220.43C221.385 254.654 222.3 254.293 223.017 253.661C223.735 253.03 224.209 252.168 224.36 251.224V251.224C224.436 250.793 224.415 250.35 224.298 249.927C224.181 249.505 223.971 249.114 223.683 248.783C223.396 248.453 223.038 248.19 222.636 248.016C222.234 247.841 221.798 247.759 221.36 247.774H173.45C172.495 247.803 171.58 248.163 170.861 248.793C170.143 249.422 169.665 250.282 169.51 251.224V251.224C169.443 251.653 169.471 252.092 169.59 252.509C169.71 252.927 169.918 253.313 170.201 253.642C170.485 253.971 170.836 254.235 171.231 254.415C171.626 254.595 172.056 254.687 172.49 254.684V254.684Z" fill="white"/>
<path opacity="0.2" d="M196.96 84.4143H274.75C275.239 84.3925 275.705 84.2024 276.069 83.8761C276.434 83.5499 276.674 83.1076 276.75 82.6243V82.6243C276.789 82.4024 276.777 82.1747 276.717 81.9576C276.657 81.7405 276.549 81.5396 276.402 81.3692C276.255 81.1989 276.071 81.0634 275.865 80.9726C275.659 80.8818 275.435 80.838 275.21 80.8443H197.46C196.974 80.8693 196.511 81.0593 196.147 81.3829C195.784 81.7065 195.541 82.1444 195.46 82.6243V82.6243C195.422 82.8434 195.433 83.068 195.49 83.2826C195.548 83.4972 195.652 83.6967 195.795 83.867C195.938 84.0374 196.116 84.1746 196.317 84.2691C196.518 84.3636 196.738 84.4132 196.96 84.4143Z" fill="white"/>
<path opacity="0.4" d="M201.649 204.232C208.082 198.231 209.065 188.828 203.843 183.231C198.622 177.633 189.174 177.961 182.741 183.962C176.307 189.963 175.325 199.366 180.546 204.963C185.768 210.561 195.216 210.233 201.649 204.232Z" fill="white"/>
<path d="M178.89 194.114C178.569 196.248 178.817 198.428 179.61 200.434C180.476 202.542 181.964 204.336 183.876 205.576C185.788 206.816 188.032 207.443 190.31 207.374C192.817 207.315 195.274 206.654 197.472 205.446C199.67 204.238 201.546 202.519 202.94 200.434C204.241 198.546 205.09 196.384 205.42 194.114C206.42 186.784 201.33 180.844 194 180.844C190.33 180.95 186.812 182.333 184.053 184.756C181.295 187.179 179.469 190.489 178.89 194.114Z" fill="white"/>
<path opacity="0.4" d="M182.54 199.184C183.203 200.803 184.344 202.181 185.812 203.133C187.279 204.086 189.002 204.567 190.75 204.514C192.674 204.468 194.559 203.96 196.246 203.032C197.932 202.104 199.371 200.785 200.44 199.184C197.95 197.381 194.944 196.43 191.87 196.474C188.569 196.498 185.34 197.436 182.54 199.184V199.184Z" fill="#263238"/>
<path opacity="0.4" d="M188.11 190.854C188.01 191.419 188.037 191.998 188.19 192.55C188.342 193.103 188.615 193.614 188.989 194.048C189.363 194.482 189.83 194.827 190.354 195.058C190.878 195.289 191.447 195.4 192.02 195.384C193.273 195.349 194.475 194.877 195.417 194.05C196.359 193.222 196.982 192.092 197.18 190.854C197.281 190.29 197.255 189.711 197.105 189.158C196.954 188.605 196.682 188.092 196.309 187.658C195.935 187.223 195.47 186.877 194.946 186.645C194.422 186.412 193.853 186.299 193.28 186.314C192.024 186.35 190.82 186.823 189.876 187.652C188.932 188.481 188.308 189.614 188.11 190.854V190.854Z" fill="#263238"/>
</svg>
